<mxfile host="app.diagrams.net" modified="2024-07-24T03:47:38.788Z" agent="Mozilla/5.0 (Windows NT 10.0; Win64; x64) AppleWebKit/537.36 (KHTML, like Gecko) Chrome/126.0.0.0 Safari/537.36" etag="j3GYud3oNNvqeBPHZEEl" version="24.7.1" type="device">
  <diagram name="Page-1" id="e5gL3BbPvV6XXZ5xQNKo">
    <mxGraphModel dx="1900" dy="1657" grid="1" gridSize="10" guides="1" tooltips="1" connect="1" arrows="1" fold="1" page="1" pageScale="1" pageWidth="850" pageHeight="1100" math="0" shadow="0">
      <root>
        <mxCell id="0" />
        <mxCell id="1" parent="0" />
        <mxCell id="yFL6FwHZy9NZVdB3z0VQ-1" value="Bus" style="rounded=0;whiteSpace=wrap;html=1;" parent="1" vertex="1">
          <mxGeometry x="320" y="260" width="120" height="60" as="geometry" />
        </mxCell>
        <mxCell id="yFL6FwHZy9NZVdB3z0VQ-2" value="Travels" style="rhombus;whiteSpace=wrap;html=1;" parent="1" vertex="1">
          <mxGeometry x="560" y="240" width="80" height="80" as="geometry" />
        </mxCell>
        <mxCell id="yFL6FwHZy9NZVdB3z0VQ-3" value="for" style="rhombus;whiteSpace=wrap;html=1;" parent="1" vertex="1">
          <mxGeometry x="110" y="240" width="80" height="80" as="geometry" />
        </mxCell>
        <mxCell id="yFL6FwHZy9NZVdB3z0VQ-4" value="Passenger" style="rounded=0;whiteSpace=wrap;html=1;" parent="1" vertex="1">
          <mxGeometry x="90" y="120" width="120" height="60" as="geometry" />
        </mxCell>
        <mxCell id="yFL6FwHZy9NZVdB3z0VQ-5" value="Route" style="rounded=0;whiteSpace=wrap;html=1;" parent="1" vertex="1">
          <mxGeometry x="520" y="100" width="120" height="60" as="geometry" />
        </mxCell>
        <mxCell id="yFL6FwHZy9NZVdB3z0VQ-6" value="Bus id or No" style="ellipse;whiteSpace=wrap;html=1;" parent="1" vertex="1">
          <mxGeometry x="540" y="390" width="120" height="80" as="geometry" />
        </mxCell>
        <mxCell id="yFL6FwHZy9NZVdB3z0VQ-7" value="Register" style="ellipse;whiteSpace=wrap;html=1;" parent="1" vertex="1">
          <mxGeometry x="150" y="400" width="120" height="80" as="geometry" />
        </mxCell>
        <mxCell id="yFL6FwHZy9NZVdB3z0VQ-9" value="" style="endArrow=none;html=1;rounded=0;" parent="1" target="yFL6FwHZy9NZVdB3z0VQ-6" edge="1">
          <mxGeometry width="50" height="50" relative="1" as="geometry">
            <mxPoint x="400" y="320" as="sourcePoint" />
            <mxPoint x="450" y="270" as="targetPoint" />
          </mxGeometry>
        </mxCell>
        <mxCell id="yFL6FwHZy9NZVdB3z0VQ-10" value="" style="endArrow=none;html=1;rounded=0;entryX=1;entryY=0;entryDx=0;entryDy=0;" parent="1" target="yFL6FwHZy9NZVdB3z0VQ-7" edge="1">
          <mxGeometry width="50" height="50" relative="1" as="geometry">
            <mxPoint x="400" y="320" as="sourcePoint" />
            <mxPoint x="450" y="270" as="targetPoint" />
          </mxGeometry>
        </mxCell>
        <mxCell id="yFL6FwHZy9NZVdB3z0VQ-11" value="" style="endArrow=none;html=1;rounded=0;entryX=0;entryY=0.5;entryDx=0;entryDy=0;exitX=1.01;exitY=0.377;exitDx=0;exitDy=0;exitPerimeter=0;" parent="1" source="yFL6FwHZy9NZVdB3z0VQ-1" target="yFL6FwHZy9NZVdB3z0VQ-2" edge="1">
          <mxGeometry width="50" height="50" relative="1" as="geometry">
            <mxPoint x="480" y="320" as="sourcePoint" />
            <mxPoint x="530" y="270" as="targetPoint" />
          </mxGeometry>
        </mxCell>
        <mxCell id="yFL6FwHZy9NZVdB3z0VQ-12" value="" style="endArrow=none;html=1;rounded=0;entryX=1;entryY=0.5;entryDx=0;entryDy=0;exitX=0;exitY=0.5;exitDx=0;exitDy=0;" parent="1" source="yFL6FwHZy9NZVdB3z0VQ-1" target="yFL6FwHZy9NZVdB3z0VQ-3" edge="1">
          <mxGeometry width="50" height="50" relative="1" as="geometry">
            <mxPoint x="400" y="320" as="sourcePoint" />
            <mxPoint x="450" y="270" as="targetPoint" />
          </mxGeometry>
        </mxCell>
        <mxCell id="yFL6FwHZy9NZVdB3z0VQ-13" value="" style="endArrow=none;html=1;rounded=0;" parent="1" source="yFL6FwHZy9NZVdB3z0VQ-2" edge="1">
          <mxGeometry width="50" height="50" relative="1" as="geometry">
            <mxPoint x="400" y="320" as="sourcePoint" />
            <mxPoint x="590" y="160" as="targetPoint" />
          </mxGeometry>
        </mxCell>
        <mxCell id="yFL6FwHZy9NZVdB3z0VQ-15" value="Name" style="ellipse;whiteSpace=wrap;html=1;" parent="1" vertex="1">
          <mxGeometry x="-10" y="10" width="120" height="80" as="geometry" />
        </mxCell>
        <mxCell id="yFL6FwHZy9NZVdB3z0VQ-16" value="Mobile" style="ellipse;whiteSpace=wrap;html=1;" parent="1" vertex="1">
          <mxGeometry x="240" width="120" height="80" as="geometry" />
        </mxCell>
        <mxCell id="yFL6FwHZy9NZVdB3z0VQ-17" value="Gender" style="ellipse;whiteSpace=wrap;html=1;" parent="1" vertex="1">
          <mxGeometry x="100" y="-70" width="120" height="80" as="geometry" />
        </mxCell>
        <mxCell id="yFL6FwHZy9NZVdB3z0VQ-19" value="Distance" style="ellipse;whiteSpace=wrap;html=1;" parent="1" vertex="1">
          <mxGeometry x="440" width="120" height="80" as="geometry" />
        </mxCell>
        <mxCell id="yFL6FwHZy9NZVdB3z0VQ-20" value="Rate" style="ellipse;whiteSpace=wrap;html=1;" parent="1" vertex="1">
          <mxGeometry x="610" y="-20" width="120" height="80" as="geometry" />
        </mxCell>
        <mxCell id="yFL6FwHZy9NZVdB3z0VQ-21" value="" style="endArrow=none;html=1;rounded=0;entryX=0.5;entryY=0;entryDx=0;entryDy=0;exitX=0.917;exitY=0.875;exitDx=0;exitDy=0;exitPerimeter=0;" parent="1" source="yFL6FwHZy9NZVdB3z0VQ-19" target="yFL6FwHZy9NZVdB3z0VQ-5" edge="1">
          <mxGeometry width="50" height="50" relative="1" as="geometry">
            <mxPoint x="400" y="120" as="sourcePoint" />
            <mxPoint x="450" y="70" as="targetPoint" />
          </mxGeometry>
        </mxCell>
        <mxCell id="yFL6FwHZy9NZVdB3z0VQ-22" value="" style="endArrow=none;html=1;rounded=0;entryX=0.5;entryY=0;entryDx=0;entryDy=0;" parent="1" target="yFL6FwHZy9NZVdB3z0VQ-5" edge="1">
          <mxGeometry width="50" height="50" relative="1" as="geometry">
            <mxPoint x="670" y="60" as="sourcePoint" />
            <mxPoint x="450" y="70" as="targetPoint" />
          </mxGeometry>
        </mxCell>
        <mxCell id="yFL6FwHZy9NZVdB3z0VQ-23" value="" style="endArrow=none;html=1;rounded=0;exitX=0.91;exitY=0.828;exitDx=0;exitDy=0;exitPerimeter=0;entryX=0.427;entryY=-0.037;entryDx=0;entryDy=0;entryPerimeter=0;" parent="1" source="yFL6FwHZy9NZVdB3z0VQ-15" target="yFL6FwHZy9NZVdB3z0VQ-4" edge="1">
          <mxGeometry width="50" height="50" relative="1" as="geometry">
            <mxPoint x="400" y="120" as="sourcePoint" />
            <mxPoint x="450" y="70" as="targetPoint" />
          </mxGeometry>
        </mxCell>
        <mxCell id="yFL6FwHZy9NZVdB3z0VQ-24" value="" style="endArrow=none;html=1;rounded=0;exitX=0.5;exitY=0;exitDx=0;exitDy=0;" parent="1" source="yFL6FwHZy9NZVdB3z0VQ-4" target="yFL6FwHZy9NZVdB3z0VQ-16" edge="1">
          <mxGeometry width="50" height="50" relative="1" as="geometry">
            <mxPoint x="400" y="120" as="sourcePoint" />
            <mxPoint x="450" y="70" as="targetPoint" />
          </mxGeometry>
        </mxCell>
        <mxCell id="yFL6FwHZy9NZVdB3z0VQ-26" value="" style="endArrow=none;html=1;rounded=0;exitX=0.447;exitY=0.017;exitDx=0;exitDy=0;exitPerimeter=0;" parent="1" source="yFL6FwHZy9NZVdB3z0VQ-4" target="yFL6FwHZy9NZVdB3z0VQ-17" edge="1">
          <mxGeometry width="50" height="50" relative="1" as="geometry">
            <mxPoint x="400" y="120" as="sourcePoint" />
            <mxPoint x="160" y="20" as="targetPoint" />
          </mxGeometry>
        </mxCell>
        <mxCell id="yFL6FwHZy9NZVdB3z0VQ-34" value="one" style="text;html=1;align=center;verticalAlign=middle;whiteSpace=wrap;rounded=0;" parent="1" vertex="1">
          <mxGeometry x="60" y="230" width="60" height="30" as="geometry" />
        </mxCell>
        <mxCell id="yFL6FwHZy9NZVdB3z0VQ-35" value="one" style="text;html=1;align=center;verticalAlign=middle;whiteSpace=wrap;rounded=0;" parent="1" vertex="1">
          <mxGeometry x="220" y="250" width="60" height="30" as="geometry" />
        </mxCell>
        <mxCell id="yFL6FwHZy9NZVdB3z0VQ-36" value="one" style="text;html=1;align=center;verticalAlign=middle;whiteSpace=wrap;rounded=0;" parent="1" vertex="1">
          <mxGeometry x="460" y="230" width="60" height="30" as="geometry" />
        </mxCell>
        <mxCell id="yFL6FwHZy9NZVdB3z0VQ-37" value="many" style="text;html=1;align=center;verticalAlign=middle;whiteSpace=wrap;rounded=0;" parent="1" vertex="1">
          <mxGeometry x="620" y="190" width="60" height="30" as="geometry" />
        </mxCell>
        <mxCell id="yFL6FwHZy9NZVdB3z0VQ-38" value="Ticket" style="rounded=0;whiteSpace=wrap;html=1;" parent="1" vertex="1">
          <mxGeometry x="-110" y="250" width="120" height="60" as="geometry" />
        </mxCell>
        <mxCell id="yFL6FwHZy9NZVdB3z0VQ-39" value="T.number" style="ellipse;whiteSpace=wrap;html=1;" parent="1" vertex="1">
          <mxGeometry x="-180" y="360" width="120" height="80" as="geometry" />
        </mxCell>
        <mxCell id="yFL6FwHZy9NZVdB3z0VQ-40" value="T.id" style="ellipse;whiteSpace=wrap;html=1;" parent="1" vertex="1">
          <mxGeometry x="-340" y="350" width="120" height="80" as="geometry" />
        </mxCell>
        <mxCell id="yFL6FwHZy9NZVdB3z0VQ-41" value="T.date" style="ellipse;whiteSpace=wrap;html=1;" parent="1" vertex="1">
          <mxGeometry x="-340" y="220" width="120" height="80" as="geometry" />
        </mxCell>
        <mxCell id="yFL6FwHZy9NZVdB3z0VQ-42" value="T.amount" style="ellipse;whiteSpace=wrap;html=1;" parent="1" vertex="1">
          <mxGeometry x="-320" y="100" width="120" height="80" as="geometry" />
        </mxCell>
        <mxCell id="yFL6FwHZy9NZVdB3z0VQ-43" value="" style="endArrow=none;html=1;rounded=0;entryX=0.632;entryY=-0.038;entryDx=0;entryDy=0;entryPerimeter=0;exitX=0;exitY=0.5;exitDx=0;exitDy=0;" parent="1" source="yFL6FwHZy9NZVdB3z0VQ-38" target="yFL6FwHZy9NZVdB3z0VQ-39" edge="1">
          <mxGeometry width="50" height="50" relative="1" as="geometry">
            <mxPoint y="270" as="sourcePoint" />
            <mxPoint x="50" y="220" as="targetPoint" />
          </mxGeometry>
        </mxCell>
        <mxCell id="yFL6FwHZy9NZVdB3z0VQ-44" value="" style="endArrow=none;html=1;rounded=0;entryX=0.699;entryY=0.021;entryDx=0;entryDy=0;entryPerimeter=0;exitX=0;exitY=0.5;exitDx=0;exitDy=0;" parent="1" source="yFL6FwHZy9NZVdB3z0VQ-38" target="yFL6FwHZy9NZVdB3z0VQ-40" edge="1">
          <mxGeometry width="50" height="50" relative="1" as="geometry">
            <mxPoint y="270" as="sourcePoint" />
            <mxPoint x="50" y="220" as="targetPoint" />
          </mxGeometry>
        </mxCell>
        <mxCell id="yFL6FwHZy9NZVdB3z0VQ-45" value="" style="endArrow=none;html=1;rounded=0;entryX=1;entryY=0.5;entryDx=0;entryDy=0;exitX=0;exitY=0.5;exitDx=0;exitDy=0;" parent="1" source="yFL6FwHZy9NZVdB3z0VQ-38" target="yFL6FwHZy9NZVdB3z0VQ-41" edge="1">
          <mxGeometry width="50" height="50" relative="1" as="geometry">
            <mxPoint y="270" as="sourcePoint" />
            <mxPoint x="50" y="220" as="targetPoint" />
          </mxGeometry>
        </mxCell>
        <mxCell id="yFL6FwHZy9NZVdB3z0VQ-46" value="" style="endArrow=none;html=1;rounded=0;exitX=1.006;exitY=0.601;exitDx=0;exitDy=0;exitPerimeter=0;entryX=0;entryY=0.5;entryDx=0;entryDy=0;" parent="1" source="yFL6FwHZy9NZVdB3z0VQ-42" target="yFL6FwHZy9NZVdB3z0VQ-38" edge="1">
          <mxGeometry width="50" height="50" relative="1" as="geometry">
            <mxPoint y="270" as="sourcePoint" />
            <mxPoint x="50" y="220" as="targetPoint" />
          </mxGeometry>
        </mxCell>
        <mxCell id="yFL6FwHZy9NZVdB3z0VQ-47" value="" style="endArrow=none;html=1;rounded=0;entryX=0;entryY=0.5;entryDx=0;entryDy=0;exitX=1;exitY=0.5;exitDx=0;exitDy=0;" parent="1" source="yFL6FwHZy9NZVdB3z0VQ-38" target="yFL6FwHZy9NZVdB3z0VQ-3" edge="1">
          <mxGeometry width="50" height="50" relative="1" as="geometry">
            <mxPoint y="270" as="sourcePoint" />
            <mxPoint x="50" y="220" as="targetPoint" />
          </mxGeometry>
        </mxCell>
        <mxCell id="yFL6FwHZy9NZVdB3z0VQ-48" value="P.buys" style="rhombus;whiteSpace=wrap;html=1;" parent="1" vertex="1">
          <mxGeometry x="-90" y="130" width="80" height="80" as="geometry" />
        </mxCell>
        <mxCell id="yFL6FwHZy9NZVdB3z0VQ-49" value="" style="endArrow=none;html=1;rounded=0;entryX=0.5;entryY=0;entryDx=0;entryDy=0;" parent="1" source="yFL6FwHZy9NZVdB3z0VQ-48" target="yFL6FwHZy9NZVdB3z0VQ-38" edge="1">
          <mxGeometry width="50" height="50" relative="1" as="geometry">
            <mxPoint x="120" y="270" as="sourcePoint" />
            <mxPoint x="170" y="220" as="targetPoint" />
          </mxGeometry>
        </mxCell>
        <mxCell id="yFL6FwHZy9NZVdB3z0VQ-50" value="" style="endArrow=none;html=1;rounded=0;entryX=0;entryY=0.5;entryDx=0;entryDy=0;exitX=1;exitY=0;exitDx=0;exitDy=0;" parent="1" source="yFL6FwHZy9NZVdB3z0VQ-48" target="yFL6FwHZy9NZVdB3z0VQ-4" edge="1">
          <mxGeometry width="50" height="50" relative="1" as="geometry">
            <mxPoint x="120" y="270" as="sourcePoint" />
            <mxPoint x="170" y="220" as="targetPoint" />
          </mxGeometry>
        </mxCell>
        <mxCell id="yFL6FwHZy9NZVdB3z0VQ-52" value="one" style="text;html=1;align=center;verticalAlign=middle;whiteSpace=wrap;rounded=0;" parent="1" vertex="1">
          <mxGeometry x="-80" y="210" width="60" height="30" as="geometry" />
        </mxCell>
        <mxCell id="yFL6FwHZy9NZVdB3z0VQ-53" value="one" style="text;html=1;align=center;verticalAlign=middle;whiteSpace=wrap;rounded=0;" parent="1" vertex="1">
          <mxGeometry x="20" y="115" width="60" height="30" as="geometry" />
        </mxCell>
      </root>
    </mxGraphModel>
  </diagram>
</mxfile>
